<svg aria-hidden="true" style="width: 0; height: 0; position: absolute; overflow: hidden" version="1.1" xmlns="http://www.w3.org/2000/svg" xmlns:xlink="http://www.w3.org/1999/xlink">
<defs>
<symbol id="icon-search" viewBox="0 0 24 24">
<path d="M16.041 15.856c-0.034 0.026-0.067 0.055-0.099 0.087s-0.060 0.064-0.087 0.099c-1.258 1.213-2.969 1.958-4.855 1.958-1.933 0-3.682-0.782-4.95-2.050s-2.050-3.017-2.050-4.95 0.782-3.682 2.050-4.95 3.017-2.050 4.95-2.050 3.682 0.782 4.95 2.050 2.050 3.017 2.050 4.95c0 1.886-0.745 3.597-1.959 4.856zM21.707 20.293l-3.675-3.675c1.231-1.54 1.968-3.493 1.968-5.618 0-2.485-1.008-4.736-2.636-6.364s-3.879-2.636-6.364-2.636-4.736 1.008-6.364 2.636-2.636 3.879-2.636 6.364 1.008 4.736 2.636 6.364 3.879 2.636 6.364 2.636c2.125 0 4.078-0.737 5.618-1.968l3.675 3.675c0.391 0.391 1.024 0.391 1.414 0s0.391-1.024 0-1.414z"></path>
</symbol>


<symbol id="icon-users" viewBox="0 0 24 24">
<path d="M18 21v-2c0-1.38-0.561-2.632-1.464-3.536s-2.156-1.464-3.536-1.464h-8c-1.38 0-2.632 0.561-3.536 1.464s-1.464 2.156-1.464 3.536v2c0 0.552 0.448 1 1 1s1-0.448 1-1v-2c0-0.829 0.335-1.577 0.879-2.121s1.292-0.879 2.121-0.879h8c0.829 0 1.577 0.335 2.121 0.879s0.879 1.292 0.879 2.121v2c0 0.552 0.448 1 1 1s1-0.448 1-1zM14 7c0-1.38-0.561-2.632-1.464-3.536s-2.156-1.464-3.536-1.464-2.632 0.561-3.536 1.464-1.464 2.156-1.464 3.536 0.561 2.632 1.464 3.536 2.156 1.464 3.536 1.464 2.632-0.561 3.536-1.464 1.464-2.156 1.464-3.536zM12 7c0 0.829-0.335 1.577-0.879 2.121s-1.292 0.879-2.121 0.879-1.577-0.335-2.121-0.879-0.879-1.292-0.879-2.121 0.335-1.577 0.879-2.121 1.292-0.879 2.121-0.879 1.577 0.335 2.121 0.879 0.879 1.292 0.879 2.121zM24 21v-2c-0.001-1.245-0.457-2.385-1.215-3.261-0.652-0.753-1.528-1.311-2.529-1.576-0.534-0.141-1.081 0.177-1.222 0.711s0.177 1.081 0.711 1.222c0.607 0.161 1.136 0.498 1.528 0.952 0.454 0.526 0.726 1.206 0.727 1.952v2c0 0.552 0.448 1 1 1s1-0.448 1-1zM15.752 4.099c0.803 0.206 1.445 0.715 1.837 1.377s0.531 1.47 0.325 2.273c-0.176 0.688-0.575 1.256-1.105 1.652-0.314 0.235-0.675 0.409-1.063 0.511-0.534 0.14-0.854 0.687-0.713 1.221s0.687 0.854 1.221 0.713c0.637-0.167 1.232-0.455 1.752-0.844 0.884-0.66 1.552-1.613 1.845-2.758 0.342-1.337 0.11-2.689-0.542-3.788s-1.725-1.953-3.062-2.296c-0.535-0.137-1.080 0.186-1.217 0.721s0.186 1.080 0.721 1.217z"></path>
</symbol>


<symbol id="icon-user" viewBox="0 0 24 24">
<path d="M21 21v-2c0-1.38-0.561-2.632-1.464-3.536s-2.156-1.464-3.536-1.464h-8c-1.38 0-2.632 0.561-3.536 1.464s-1.464 2.156-1.464 3.536v2c0 0.552 0.448 1 1 1s1-0.448 1-1v-2c0-0.829 0.335-1.577 0.879-2.121s1.292-0.879 2.121-0.879h8c0.829 0 1.577 0.335 2.121 0.879s0.879 1.292 0.879 2.121v2c0 0.552 0.448 1 1 1s1-0.448 1-1zM17 7c0-1.38-0.561-2.632-1.464-3.536s-2.156-1.464-3.536-1.464-2.632 0.561-3.536 1.464-1.464 2.156-1.464 3.536 0.561 2.632 1.464 3.536 2.156 1.464 3.536 1.464 2.632-0.561 3.536-1.464 1.464-2.156 1.464-3.536zM15 7c0 0.829-0.335 1.577-0.879 2.121s-1.292 0.879-2.121 0.879-1.577-0.335-2.121-0.879-0.879-1.292-0.879-2.121 0.335-1.577 0.879-2.121 1.292-0.879 2.121-0.879 1.577 0.335 2.121 0.879 0.879 1.292 0.879 2.121z"></path>
</symbol>



<symbol id="icon-arrow-left" viewBox="0 0 1024 1024"><title>exit</title><path class="path1" d="M588.8 409.6c14.139 0 25.6-11.462 25.6-25.6v-204.8c0-42.347-34.451-76.8-76.8-76.8h-460.8c-42.347 0-76.8 34.453-76.8 76.8v614.4c0 38.178 27.488 79.862 62.576 94.899l264.278 113.262c9.134 3.915 18.373 5.859 27.24 5.859 10.926-0.002 21.288-2.955 30.173-8.814 16.099-10.616 25.333-29.426 25.333-51.606v-76.8h128c42.349 0 76.8-34.451 76.8-76.8v-204.8c0-14.139-11.461-25.6-25.6-25.6s-25.6 11.461-25.6 25.6v204.8c0 14.115-11.485 25.6-25.6 25.6h-128v-486.4c0-38.176-27.488-79.861-62.576-94.899l-196.702-84.301h387.278c14.115 0 25.6 11.485 25.6 25.6v204.8c0 14.138 11.461 25.6 25.6 25.6zM326.854 284.962c16.51 7.075 31.546 29.877 31.546 47.838v614.4c0 5.344-1.421 8.272-2.317 8.862-0.898 0.589-4.15 0.742-9.061-1.362l-264.278-113.262c-16.509-7.074-31.544-29.875-31.544-47.838v-614.4c0-4.037 0.939-7.859 2.611-11.258l273.043 117.019z"></path><path class="path2" d="M939.701 468.299l-153.6-153.6c-9.997-9.998-26.206-9.998-36.203 0-9.998 9.997-9.998 26.206 0 36.203l109.899 109.898h-322.197c-14.139 0-25.6 11.462-25.6 25.6s11.461 25.6 25.6 25.6h322.197l-109.899 109.899c-9.998 9.997-9.998 26.206 0 36.203 5 4.998 11.55 7.498 18.102 7.498s13.102-2.499 18.101-7.499l153.6-153.6c9.998-9.997 9.998-26.205 0-36.202z"></path></symbol>



<symbol id="icon-order" viewBox="0 0 1024 1024"><title>store</title><path class="path1" d="M921.6 486.4v-51.2c0-3.974-0.925-7.894-2.702-11.448l-102.4-204.8c-4.336-8.674-13.2-14.152-22.898-14.152h-614.4c-9.698 0-18.562 5.478-22.898 14.152l-102.4 204.8c-1.778 3.554-2.702 7.474-2.702 11.448v51.2c0 41.786 20.131 78.955 51.2 102.33v332.87h-25.6c-14.138 0-25.6 11.461-25.6 25.6s11.462 25.6 25.6 25.6h819.2c14.139 0 25.6-11.461 25.6-25.6s-11.461-25.6-25.6-25.6h-25.598v-332.87c31.067-23.376 51.198-60.544 51.198-102.33zM588.8 563.2c-42.347 0-76.8-34.453-76.8-76.8v-25.6h153.6v25.6c0 42.347-34.453 76.8-76.8 76.8zM102.4 486.4v-25.6h153.6v25.6c0 42.347-34.453 76.8-76.8 76.8s-76.8-34.453-76.8-76.8zM460.8 256v153.6h-146.413l38.4-153.6h108.013zM620.013 256l38.4 153.6h-146.413v-153.6h108.013zM307.2 460.8h153.6v25.6c0 42.347-34.453 76.8-76.8 76.8s-76.8-34.453-76.8-76.8v-25.6zM716.8 460.8h153.6v25.6c0 42.347-34.453 76.8-76.8 76.8s-76.8-34.453-76.8-76.8v-25.6zM854.578 409.6h-143.39l-38.4-153.6h104.99l76.8 153.6zM195.022 256h104.99l-38.4 153.6h-143.39l76.8-153.6zM153.6 611.826c8.274 1.686 16.835 2.574 25.6 2.574 41.827 0 79.029-20.168 102.4-51.29 23.371 31.122 60.573 51.29 102.4 51.29s79.029-20.168 102.4-51.29c18.474 24.598 45.589 42.354 76.8 48.714v309.776h-409.6v-309.774zM819.202 921.6h-204.802v-309.774c31.211-6.362 58.325-24.115 76.8-48.714 23.371 31.12 60.573 51.288 102.4 51.288 8.766 0 17.326-0.89 25.602-2.576v309.776z"></path><path class="path2" d="M716.8 742.4c0 14.138-11.462 25.6-25.6 25.6s-25.6-11.462-25.6-25.6c0-14.138 11.462-25.6 25.6-25.6s25.6 11.462 25.6 25.6z"></path><path class="path3" d="M230.4 768c-6.552 0-13.102-2.499-18.102-7.499-9.997-9.997-9.997-26.206 0-36.203l51.2-51.2c9.998-9.997 26.206-9.997 36.205 0 9.997 9.997 9.997 26.206 0 36.203l-51.2 51.2c-5 5-11.55 7.499-18.102 7.499z"></path><path class="path4" d="M281.6 870.4c-6.552 0-13.102-2.499-18.101-7.499-9.998-9.997-9.998-26.206 0-36.203l153.6-153.6c9.997-9.997 26.206-9.997 36.203 0 9.998 9.997 9.998 26.206 0 36.203l-153.6 153.6c-5 5-11.55 7.499-18.102 7.499z"></path><path class="path5" d="M435.2 870.4c-6.552 0-13.102-2.499-18.102-7.499-9.997-9.997-9.997-26.206 0-36.203l51.2-51.2c9.998-9.997 26.206-9.997 36.205 0s9.998 26.206 0 36.203l-51.2 51.2c-5 5-11.55 7.499-18.102 7.499z"></path></symbol>


<symbol id="lcon-heart-pulse" viewBox="0 0 1024 1024"><title>heart-pulse</title><path class="path1" d="M486.4 972.8c-4.283 0-8.566-1.074-12.432-3.222-5.954-3.307-147.285-82.464-274.914-208.987-10.040-9.954-10.11-26.163-0.157-36.203s26.163-10.11 36.203-0.157c101.349 100.472 214.307 171.323 251.293 193.35 37-22.054 150.123-93.045 251.304-193.352 10.042-9.952 26.248-9.882 36.205 0.158 9.954 10.040 9.883 26.25-0.158 36.205-127.629 126.52-268.958 205.678-274.912 208.986-3.866 2.149-8.149 3.222-12.432 3.222z"></path><path class="path2" d="M65.478 563.216c-9.61 0-18.821-5.437-23.182-14.709-28.066-59.659-42.296-119.314-42.296-177.307 0-148.218 120.582-268.8 268.8-268.8 50.173 0 103.461 18.805 150.051 52.952 27.251 19.973 50.442 44.043 67.549 69.606 17.107-25.565 40.299-49.634 67.55-69.606 46.589-34.147 99.878-52.952 150.050-52.952 148.218 0 268.8 120.582 268.8 268.8 0 57.992-14.23 117.645-42.294 177.301-6.018 12.794-21.267 18.29-34.061 12.267-12.794-6.018-18.286-21.267-12.269-34.061 24.834-52.786 37.424-105.107 37.424-155.507 0-119.986-97.616-217.6-217.6-217.6-87.187 0-171.856 71.725-193.314 136.096-3.485 10.453-13.267 17.504-24.286 17.504s-20.802-7.051-24.286-17.504c-21.456-64.371-106.125-136.096-193.314-136.096-119.986 0-217.6 97.614-217.6 217.6 0 50.4 12.592 102.723 37.426 155.512 6.019 12.794 0.526 28.043-12.267 34.061-3.522 1.659-7.23 2.443-10.88 2.443z"></path><path class="path3" d="M538.346 768.024c-0.232 0-0.456-0.002-0.678-0.006-10.35-0.218-29.122-5.598-38.552-39.194l-62.291-221.915-41.328 167.894c-8.106 32.933-26.902 39.813-37.387 40.982-10.483 1.173-30.334-1.397-45.504-31.733l-31.005-62.010c-1.475-2.952-2.85-4.834-3.893-6-0.171 0.229-0.355 0.483-0.546 0.765-18.939 27.816-61.053 48.792-97.962 48.792h-51.2c-14.138 0-25.6-11.461-25.6-25.6s11.462-25.6 25.6-25.6h51.2c21.554 0 47.152-13.942 55.638-26.408 11.397-16.739 28.026-25.638 45.629-24.48 19.142 1.286 36.246 14.274 46.928 35.634l22.781 45.562 47.93-194.71c8.069-32.784 24.658-39.907 37.15-40.109 12.512-0.24 29.302 6.379 38.43 38.888l65.763 234.286 60.323-184.738c10.504-32.168 29.779-37.707 40.334-38.144 10.542-0.435 30.224 3.482 43.357 34.672l37.062 88.026c6.946 16.496 29.573 31.522 47.474 31.522h76.8c14.139 0 25.6 11.461 25.6 25.6s-11.461 25.6-25.6 25.6h-76.8c-38.24 0-79.822-27.608-94.662-62.853l-30.301-71.968-65.208 199.699c-10.598 32.454-29 37.546-39.483 37.546z"></path></symbol>

<symbol id="lnr-envelope" viewBox="0 0 1024 1024"><title>envelope</title><path class="path1" d="M896 307.2h-819.2c-42.347 0-76.8 34.453-76.8 76.8v460.8c0 42.349 34.453 76.8 76.8 76.8h819.2c42.349 0 76.8-34.451 76.8-76.8v-460.8c0-42.347-34.451-76.8-76.8-76.8zM896 358.4c1.514 0 2.99 0.158 4.434 0.411l-385.632 257.090c-14.862 9.907-41.938 9.907-56.802 0l-385.634-257.090c1.443-0.253 2.92-0.411 4.434-0.411h819.2zM896 870.4h-819.2c-14.115 0-25.6-11.485-25.6-25.6v-438.566l378.4 252.267c15.925 10.618 36.363 15.925 56.8 15.925s40.877-5.307 56.802-15.925l378.398-252.267v438.566c0 14.115-11.485 25.6-25.6 25.6z"></path></symbol>


<symbol id="icon-minus" viewBox="0 0 1024 1024"><title>minus</title><path d="M11.357 3.332A.641.641 0 0 0 12 2.69V.643A.641.641 0 0 0 11.357 0H.643A.641.641 0 0 0 0 .643v2.046c0 .357.287.643.643.643h10.714Z" id="a"></path></symbol>

<symbol id="icon-close" width="14" height="15" viewBox="0 0 1024 1024"><title>minus</title><path fill-rule="evenodd" clip-rule="evenodd" d="M10.9393 12L6.9696 15.9697L8.03026 17.0304L12 13.0607L15.9697 17.0304L17.0304 15.9697L13.0607 12L17.0303 8.03039L15.9696 6.96973L12 10.9393L8.03038 6.96973L6.96972 8.03039L10.9393 12Z" fill="#080341"></path></symbol>
</defs>
</svg>
